ISO-10303-21;
HEADER;
FILE_DESCRIPTION(('FreeCAD Model'),'2;1');
FILE_NAME('Open CASCADE Shape Model','2026-10-06T10:25:40',('FreeCAD'),(
    'FreeCAD'),'Open CASCADE STEP processor 7.8','FreeCAD','Unknown');
FILE_SCHEMA(('AUTOMOTIVE_DESIGN { 1 0 10303 214 1 1 1 1 }'));
ENDSEC;
DATA;
#1 = APPLICATION_PROTOCOL_DEFINITION('international standard',
  'automotive_design',2000,#2);
#2 = APPLICATION_CONTEXT(
  'core data for automotive mechanical design processes');
#3 = SHAPE_DEFINITION_REPRESENTATION(#4,#10);
#4 = PRODUCT_DEFINITION_SHAPE('','',#5);
#5 = PRODUCT_DEFINITION('design','',#6,#9);
#6 = PRODUCT_DEFINITION_FORMATION('','',#7);
#7 = PRODUCT('Open CASCADE STEP translator 7.8 3',
  'Open CASCADE STEP translator 7.8 3','',(#8));
#8 = PRODUCT_CONTEXT('',#2,'mechanical');
#9 = PRODUCT_DEFINITION_CONTEXT('part definition',#2,'design');
#10 = ADVANCED_BREP_SHAPE_REPRESENTATION('',(#11,#15),#169);
#11 = AXIS2_PLACEMENT_3D('',#12,#13,#14);
#12 = CARTESIAN_POINT('',(0.,0.,0.));
#13 = DIRECTION('',(0.,0.,1.));
#14 = DIRECTION('',(1.,0.,-0.));
#15 = MANIFOLD_SOLID_BREP('',#16);
#16 = CLOSED_SHELL('',(#17,#42,#74,#106,#138,#153));
#17 = ADVANCED_FACE('',(#18),#37,.F.);
#18 = FACE_BOUND('',#19,.T.);
#19 = EDGE_LOOP('',(#20,#31));
#20 = ORIENTED_EDGE('',*,*,#21,.F.);
#21 = EDGE_CURVE('',#22,#24,#26,.T.);
#22 = VERTEX_POINT('',#23);
#23 = CARTESIAN_POINT('',(10.,0.,0.));
#24 = VERTEX_POINT('',#25);
#25 = CARTESIAN_POINT('',(-10.,1.224646799147E-15,-2.719262146894E-31));
#26 = CIRCLE('',#27,10.);
#27 = AXIS2_PLACEMENT_3D('',#28,#29,#30);
#28 = CARTESIAN_POINT('',(0.,0.,0.));
#29 = DIRECTION('',(-0.,2.22044604925E-16,1.));
#30 = DIRECTION('',(1.,0.,0.));
#31 = ORIENTED_EDGE('',*,*,#32,.F.);
#32 = EDGE_CURVE('',#24,#22,#33,.T.);
#33 = LINE('',#34,#35);
#34 = CARTESIAN_POINT('',(0.,0.,0.));
#35 = VECTOR('',#36,1.);
#36 = DIRECTION('',(1.,0.,0.));
#37 = PLANE('',#38);
#38 = AXIS2_PLACEMENT_3D('',#39,#40,#41);
#39 = CARTESIAN_POINT('',(0.,0.,0.));
#40 = DIRECTION('',(0.,2.22044604925E-16,1.));
#41 = DIRECTION('',(1.,0.,0.));
#42 = ADVANCED_FACE('',(#43),#69,.T.);
#43 = FACE_BOUND('',#44,.T.);
#44 = EDGE_LOOP('',(#45,#46,#54,#63));
#45 = ORIENTED_EDGE('',*,*,#21,.T.);
#46 = ORIENTED_EDGE('',*,*,#47,.T.);
#47 = EDGE_CURVE('',#24,#48,#50,.T.);
#48 = VERTEX_POINT('',#49);
#49 = CARTESIAN_POINT('',(-10.,5.665538897648E-15,20.));
#50 = LINE('',#51,#52);
#51 = CARTESIAN_POINT('',(-10.,1.224646799147E-15,-3.944304526105E-31));
#52 = VECTOR('',#53,1.);
#53 = DIRECTION('',(0.,2.22044604925E-16,1.));
#54 = ORIENTED_EDGE('',*,*,#55,.F.);
#55 = EDGE_CURVE('',#56,#48,#58,.T.);
#56 = VERTEX_POINT('',#57);
#57 = CARTESIAN_POINT('',(10.,4.440892098501E-15,20.));
#58 = CIRCLE('',#59,10.);
#59 = AXIS2_PLACEMENT_3D('',#60,#61,#62);
#60 = CARTESIAN_POINT('',(0.,4.440892098501E-15,20.));
#61 = DIRECTION('',(-0.,2.22044604925E-16,1.));
#62 = DIRECTION('',(1.,0.,0.));
#63 = ORIENTED_EDGE('',*,*,#64,.F.);
#64 = EDGE_CURVE('',#22,#56,#65,.T.);
#65 = LINE('',#66,#67);
#66 = CARTESIAN_POINT('',(10.,0.,0.));
#67 = VECTOR('',#68,1.);
#68 = DIRECTION('',(0.,2.22044604925E-16,1.));
#69 = CYLINDRICAL_SURFACE('',#70,10.);
#70 = AXIS2_PLACEMENT_3D('',#71,#72,#73);
#71 = CARTESIAN_POINT('',(0.,0.,0.));
#72 = DIRECTION('',(0.,2.22044604925E-16,1.));
#73 = DIRECTION('',(1.,0.,0.));
#74 = ADVANCED_FACE('',(#75),#101,.T.);
#75 = FACE_BOUND('',#76,.T.);
#76 = EDGE_LOOP('',(#77,#78,#86,#95));
#77 = ORIENTED_EDGE('',*,*,#55,.T.);
#78 = ORIENTED_EDGE('',*,*,#79,.T.);
#79 = EDGE_CURVE('',#48,#80,#82,.T.);
#80 = VERTEX_POINT('',#81);
#81 = CARTESIAN_POINT('',(-6.,5.175680177989E-15,20.));
#82 = LINE('',#83,#84);
#83 = CARTESIAN_POINT('',(-10.,5.665538897648E-15,20.));
#84 = VECTOR('',#85,1.);
#85 = DIRECTION('',(1.,-1.224646799147E-16,2.465190328816E-32));
#86 = ORIENTED_EDGE('',*,*,#87,.F.);
#87 = EDGE_CURVE('',#88,#80,#90,.T.);
#88 = VERTEX_POINT('',#89);
#89 = CARTESIAN_POINT('',(6.,4.440892098501E-15,20.));
#90 = CIRCLE('',#91,6.);
#91 = AXIS2_PLACEMENT_3D('',#92,#93,#94);
#92 = CARTESIAN_POINT('',(0.,4.440892098501E-15,20.));
#93 = DIRECTION('',(-0.,2.22044604925E-16,1.));
#94 = DIRECTION('',(1.,0.,0.));
#95 = ORIENTED_EDGE('',*,*,#96,.F.);
#96 = EDGE_CURVE('',#56,#88,#97,.T.);
#97 = LINE('',#98,#99);
#98 = CARTESIAN_POINT('',(10.,4.440892098501E-15,20.));
#99 = VECTOR('',#100,1.);
#100 = DIRECTION('',(-1.,0.,0.));
#101 = PLANE('',#102);
#102 = AXIS2_PLACEMENT_3D('',#103,#104,#105);
#103 = CARTESIAN_POINT('',(0.,4.440892098501E-15,20.));
#104 = DIRECTION('',(0.,2.22044604925E-16,1.));
#105 = DIRECTION('',(1.,0.,0.));
#106 = ADVANCED_FACE('',(#107),#133,.T.);
#107 = FACE_BOUND('',#108,.T.);
#108 = EDGE_LOOP('',(#109,#110,#118,#127));
#109 = ORIENTED_EDGE('',*,*,#87,.T.);
#110 = ORIENTED_EDGE('',*,*,#111,.T.);
#111 = EDGE_CURVE('',#80,#112,#114,.T.);
#112 = VERTEX_POINT('',#113);
#113 = CARTESIAN_POINT('',(-6.,9.61657227649E-15,40.));
#114 = LINE('',#115,#116);
#115 = CARTESIAN_POINT('',(-6.,5.175680177989E-15,20.));
#116 = VECTOR('',#117,1.);
#117 = DIRECTION('',(0.,2.22044604925E-16,1.));
#118 = ORIENTED_EDGE('',*,*,#119,.F.);
#119 = EDGE_CURVE('',#120,#112,#122,.T.);
#120 = VERTEX_POINT('',#121);
#121 = CARTESIAN_POINT('',(6.,8.881784197001E-15,40.));
#122 = CIRCLE('',#123,6.);
#123 = AXIS2_PLACEMENT_3D('',#124,#125,#126);
#124 = CARTESIAN_POINT('',(0.,8.881784197001E-15,40.));
#125 = DIRECTION('',(-0.,2.22044604925E-16,1.));
#126 = DIRECTION('',(1.,0.,0.));
#127 = ORIENTED_EDGE('',*,*,#128,.F.);
#128 = EDGE_CURVE('',#88,#120,#129,.T.);
#129 = LINE('',#130,#131);
#130 = CARTESIAN_POINT('',(6.,4.440892098501E-15,20.));
#131 = VECTOR('',#132,1.);
#132 = DIRECTION('',(0.,2.22044604925E-16,1.));
#133 = CYLINDRICAL_SURFACE('',#134,6.);
#134 = AXIS2_PLACEMENT_3D('',#135,#136,#137);
#135 = CARTESIAN_POINT('',(0.,4.440892098501E-15,20.));
#136 = DIRECTION('',(0.,2.22044604925E-16,1.));
#137 = DIRECTION('',(1.,0.,0.));
#138 = ADVANCED_FACE('',(#139),#148,.T.);
#139 = FACE_BOUND('',#140,.T.);
#140 = EDGE_LOOP('',(#141,#142));
#141 = ORIENTED_EDGE('',*,*,#119,.T.);
#142 = ORIENTED_EDGE('',*,*,#143,.T.);
#143 = EDGE_CURVE('',#112,#120,#144,.T.);
#144 = LINE('',#145,#146);
#145 = CARTESIAN_POINT('',(-6.,9.61657227649E-15,40.));
#146 = VECTOR('',#147,1.);
#147 = DIRECTION('',(1.,-1.224646799147E-16,2.719262146894E-32));
#148 = PLANE('',#149);
#149 = AXIS2_PLACEMENT_3D('',#150,#151,#152);
#150 = CARTESIAN_POINT('',(0.,8.881784197001E-15,40.));
#151 = DIRECTION('',(0.,2.22044604925E-16,1.));
#152 = DIRECTION('',(1.,0.,0.));
#153 = ADVANCED_FACE('',(#154),#164,.T.);
#154 = FACE_BOUND('',#155,.T.);
#155 = EDGE_LOOP('',(#156,#157,#158,#159,#160,#161,#162,#163));
#156 = ORIENTED_EDGE('',*,*,#32,.T.);
#157 = ORIENTED_EDGE('',*,*,#64,.T.);
#158 = ORIENTED_EDGE('',*,*,#96,.T.);
#159 = ORIENTED_EDGE('',*,*,#128,.T.);
#160 = ORIENTED_EDGE('',*,*,#143,.F.);
#161 = ORIENTED_EDGE('',*,*,#111,.F.);
#162 = ORIENTED_EDGE('',*,*,#79,.F.);
#163 = ORIENTED_EDGE('',*,*,#47,.F.);
#164 = PLANE('',#165);
#165 = AXIS2_PLACEMENT_3D('',#166,#167,#168);
#166 = CARTESIAN_POINT('',(0.,4.573459004969E-15,18.666666666667));
#167 = DIRECTION('',(0.,-1.,2.182747033978E-16));
#168 = DIRECTION('',(0.,2.182747033978E-16,1.));
#169 = ( GEOMETRIC_REPRESENTATION_CONTEXT(3) 
GLOBAL_UNCERTAINTY_ASSIGNED_CONTEXT((#173)) GLOBAL_UNIT_ASSIGNED_CONTEXT
((#170,#171,#172)) REPRESENTATION_CONTEXT('Context #1',
  '3D Context with UNIT and UNCERTAINTY') );
#170 = ( LENGTH_UNIT() NAMED_UNIT(*) SI_UNIT(.MILLI.,.METRE.) );
#171 = ( NAMED_UNIT(*) PLANE_ANGLE_UNIT() SI_UNIT($,.RADIAN.) );
#172 = ( NAMED_UNIT(*) SI_UNIT($,.STERADIAN.) SOLID_ANGLE_UNIT() );
#173 = UNCERTAINTY_MEASURE_WITH_UNIT(LENGTH_MEASURE(1.E-07),#170,
  'distance_accuracy_value','confusion accuracy');
#174 = PRODUCT_RELATED_PRODUCT_CATEGORY('part',$,(#7));
ENDSEC;
END-ISO-10303-21;
